<svg width="38" height="40" viewBox="0 0 38 40" fill="none" xmlns="http://www.w3.org/2000/svg">
<g clip-path="url(#clip0_154_749)">
<path d="M14.9195 15.0771C17.8073 12.1592 18.3337 7.78711 18.4297 0.00976562C8.38874 0.308412 0.3029 8.47846 0.00732422 18.624C7.70452 18.527 12.0316 17.9951 14.9195 15.0771Z" fill="#E5F3FA"/>
<path d="M0.00739497 18.6247C0.00182696 18.8158 -0.000976562 19.0075 -0.000976562 19.2C-0.000976562 19.3924 0.00182687 19.5843 0.00739473 19.7754C7.7046 19.8724 12.0317 20.4043 14.9196 23.3222C17.8073 26.2402 18.3338 30.6123 18.4298 38.3897C18.619 38.3953 18.8088 38.3981 18.9992 38.3981C19.1897 38.3981 19.3795 38.3953 19.5687 38.3897C19.6647 30.6123 20.1911 26.2402 23.0789 23.3222C25.9668 20.4043 30.2939 19.8724 37.9911 19.7754C37.9966 19.5843 37.9995 19.3924 37.9995 19.2C37.9995 19.0075 37.9966 18.8158 37.9911 18.6247C30.2939 18.5277 25.9668 17.9957 23.0789 15.0777C20.1911 12.1599 19.6647 7.78775 19.5687 0.0104113C19.3795 0.00478567 19.1897 0.00195312 18.9992 0.00195312C18.8088 0.00195312 18.619 0.00478571 18.4298 0.0104115C18.3338 7.78776 17.8073 12.1599 14.9196 15.0777C12.0316 17.9957 7.70459 18.5277 0.00739497 18.6247Z" fill="#2F3331"/>
<path d="M19.5684 0.00976562C19.6644 7.7871 20.1908 12.1592 23.0786 15.0771C25.9665 17.9951 30.2936 18.527 37.9908 18.624C37.6952 8.47844 29.6094 0.30841 19.5684 0.00976562Z" fill="#E5F3FA"/>
<path fill-rule="evenodd" clip-rule="evenodd" d="M18.4298 0.00195312V0.0104115C18.619 0.00478571 18.8088 0.00195312 18.9992 0.00195312C19.1897 0.00195312 19.3795 0.00478567 19.5687 0.0104113V0.00195312H18.9992H18.4298ZM-0.000976562 18.6247H0.00739497C0.00182696 18.8158 -0.000976562 19.0075 -0.000976562 19.2V18.6247ZM0.00739473 19.7754C0.00182687 19.5843 -0.000976562 19.3924 -0.000976562 19.2V19.7754H0.00739473ZM18.4298 38.3897L18.4299 38.3981H18.9992H19.5687V38.3897C19.3795 38.3953 19.1897 38.3981 18.9992 38.3981C18.8088 38.3981 18.619 38.3953 18.4298 38.3897ZM37.9995 19.7753L37.9911 19.7754C37.9966 19.5843 37.9995 19.3924 37.9995 19.2V19.7753ZM37.9995 18.6247V19.2C37.9995 19.0075 37.9966 18.8158 37.9911 18.6247H37.9995Z" fill="#2F3331"/>
<path d="M0.00732422 19.7754C0.302896 29.9209 8.38875 38.091 18.4297 38.3897C18.3337 30.6123 17.8073 26.2402 14.9195 23.3222C12.0316 20.4043 7.70453 19.8724 0.00732422 19.7754Z" fill="#E5F3FA"/>
<path d="M23.0786 23.3222C20.1908 26.2402 19.6644 30.6123 19.5684 38.3897C29.6094 38.091 37.6952 29.9209 37.9908 19.7754C30.2936 19.8724 25.9665 20.4043 23.0786 23.3222Z" fill="#E5F3FA"/>
</g>
<defs>
<clipPath id="clip0_154_749">
<rect width="38" height="40" fill="white"/>
</clipPath>
</defs>
</svg>
