<svg width="601" height="107" viewBox="0 0 601 107" fill="none" xmlns="http://www.w3.org/2000/svg">
<path d="M113.454 37.017C113.454 45.2117 111.429 52.1348 107.379 57.7863C103.423 63.4379 96.5939 67.5352 86.8921 70.0784C88.0224 71.5855 88.8231 72.7629 89.294 73.6106L112.183 105.4H73.7524C69.6079 97.6766 63.0616 86.7504 54.1133 72.6216H33.344V105.4H2.96969e-05C0.753565 87.1271 1.13033 70.0313 1.13033 54.1129C1.13033 38.1944 0.753565 21.0986 2.96969e-05 2.82533H33.344V2.96661H62.308C81.3348 2.96661 94.6159 6.02785 102.151 12.1503C109.687 18.2728 113.454 26.5617 113.454 37.017ZM33.344 30.0939V46.2007H52.4179C60.4242 46.2007 66.4525 45.9652 70.5027 45.4943C74.6472 44.9291 77.52 44.0814 79.1213 42.9511C80.7226 41.8208 81.5232 40.1724 81.5232 38.006C81.5232 35.9338 80.7697 34.3325 79.2626 33.2022C77.7555 32.0719 74.9298 31.2713 70.7853 30.8003C66.6409 30.3294 60.5184 30.0939 52.4179 30.0939H33.344ZM208.373 2.68403H243.413V58.9166C243.224 72.7629 238.468 84.2072 229.143 93.2496C219.912 102.292 204.323 106.813 182.376 106.813C160.147 106.813 144.935 102.528 136.74 93.9561C128.546 85.2904 124.542 73.9403 124.731 59.9057V2.68403H159.77V57.6451C159.77 61.7895 160.053 65.1804 160.618 67.8178C161.277 70.361 163.255 72.7629 166.552 75.0235C169.943 77.2841 175.359 78.4144 182.8 78.4144C190.901 78.4144 196.835 77.2841 200.602 75.0235C204.37 72.6687 206.584 70.0784 207.243 67.2526C207.997 64.4269 208.373 60.8005 208.373 56.3735V2.68403ZM376.071 32.4958C361.283 32.0248 346.919 31.7423 332.978 31.6481V105.4H297.656V31.6481C283.622 31.7423 269.304 32.0248 254.705 32.4958V2.82533H376.071V32.4958ZM469.526 30.9416C458.318 30.3765 450.029 30.0468 444.66 29.9526V78.2731C450.123 78.1789 458.412 77.8492 469.526 77.2841V105.4H387.438V77.2841C398.27 77.8492 406.512 78.1789 412.164 78.2731V29.9526C406.512 30.0468 398.27 30.3765 387.438 30.9416V2.82533H469.526V30.9416ZM480.848 93.2496C484.051 88.4458 486.688 83.9717 488.76 79.8273C490.927 75.6828 492.999 70.879 494.977 65.4159C501.665 69.2778 509.436 72.2919 518.29 74.4583C527.144 76.6247 535.385 77.7079 543.015 77.7079C550.833 77.7079 556.343 77.0486 559.546 75.7299C562.748 74.317 564.349 72.81 564.349 71.2087C564.349 65.463 555.59 62.5901 538.07 62.5901C518.855 62.5901 504.914 60.6121 496.249 56.656C487.583 52.6058 483.25 46.1065 483.25 37.1583C483.25 24.4424 488.525 15.0703 499.074 9.04199C509.624 3.01371 523.329 -0.000437696 540.189 -0.000437696C549.985 -0.000437696 560.017 1.27115 570.284 3.81434C580.645 6.26333 589.97 9.65424 598.259 13.9871C595.527 20.2037 592.654 27.7862 589.64 36.7344C589.075 38.6183 588.604 40.0312 588.227 40.9731C583.423 37.1112 576.171 33.9087 566.469 31.3655C556.767 28.7281 548.196 27.4094 540.754 27.4094C531.806 27.4094 525.778 28.0217 522.669 29.2462C519.561 30.3765 518.007 32.0719 518.007 34.3325C518.007 36.5931 520.126 38.4299 524.365 39.8428C528.698 41.1615 534.914 41.8208 543.015 41.8208C562.984 41.8208 577.489 44.1285 586.532 48.7439C595.574 53.2651 600.095 60.2353 600.095 69.6545C600.095 82.8414 595.291 92.3548 585.684 98.1947C576.076 103.94 561.524 106.813 542.026 106.813C531.571 106.813 520.927 105.683 510.095 103.422C499.263 101.068 489.514 97.6766 480.848 93.2496Z" fill="#2F3331"/>
</svg>
