<svg width="35" height="40" viewBox="0 0 35 40" fill="none" xmlns="http://www.w3.org/2000/svg">
<g clip-path="url(#clip0_154_746)">
<path d="M29.7722 8.01766C27.6098 6.61299 26.0504 4.36451 25.5632 1.7448C25.4585 1.17892 25.4001 0.595982 25.4001 0H18.5002L18.4891 27.5596C18.3733 30.6459 15.8243 33.1231 12.7005 33.1231C11.7291 33.1231 10.815 32.8813 10.0096 32.4589C8.16334 31.4907 6.89993 29.5623 6.89993 27.3429C6.89993 24.1553 9.50226 21.5617 12.6995 21.5617C13.2965 21.5617 13.8693 21.66 14.4109 21.8286V14.8082C13.8502 14.732 13.2804 14.6848 12.6995 14.6848C5.69693 14.6848 0 20.3627 0 27.3429C0 31.6252 2.14629 35.4148 5.4221 37.7064C7.48483 39.1502 9.99454 40 12.7005 40C19.7032 40 25.4001 34.3221 25.4001 27.3429V13.3674C28.1061 15.3029 31.4222 16.4437 35 16.4437V9.56681C33.0732 9.56681 31.2782 8.99591 29.7722 8.01766Z" fill="#E5F3FA"/>
</g>
<defs>
<clipPath id="clip0_154_746">
<rect width="35" height="40" fill="white"/>
</clipPath>
</defs>
</svg>
