<svg width="40" height="40" viewBox="0 0 40 40" fill="none" xmlns="http://www.w3.org/2000/svg">
<g clip-path="url(#clip0_154_763)">
<path d="M0 19.1667C0 10.1317 0 5.61417 2.80667 2.80667C5.61333 -0.000833273 10.1317 2.93269e-10 19.1667 2.93269e-10H20.8333C29.8683 2.93269e-10 34.3867 0 37.1933 2.80667C40 5.61417 40 10.1317 40 19.1667V20.8333C40 29.8683 40 34.3867 37.1933 37.1933C34.3858 40 29.8683 40 20.8333 40H19.1667C10.1317 40 5.61417 40 2.80667 37.1933C0 34.3858 0 29.8683 0 20.8333V19.1667Z" fill="#E5F3FA"/>
<path fill-rule="evenodd" clip-rule="evenodd" d="M10.8334 12.5H7.91675C7.08341 12.5 6.91675 12.8917 6.91675 13.325C6.91675 14.0975 7.90508 17.9292 11.5209 22.9967C13.9309 26.4575 17.3267 28.3333 20.4167 28.3333C22.2709 28.3333 22.5001 27.9167 22.5001 27.1992V24.5833C22.5001 23.75 22.6751 23.5833 23.2626 23.5833C23.6959 23.5833 24.4376 23.8 26.1676 25.4683C28.1451 27.4458 28.4709 28.3333 29.5834 28.3333H32.5001C33.3334 28.3333 33.7501 27.9167 33.5092 27.0942C33.2467 26.275 32.3026 25.0858 31.0492 23.6767C30.3692 22.8733 29.3492 22.0075 29.0409 21.575C28.6076 21.0192 28.7326 20.7717 29.0409 20.2775C29.0409 20.2775 32.5942 15.2717 32.9659 13.5725C33.1509 12.9542 32.9659 12.5 32.0826 12.5H29.1667C28.4251 12.5 28.0834 12.8917 27.8984 13.325C27.8984 13.325 26.4151 16.94 24.3142 19.2883C23.6342 19.9683 23.3251 20.185 22.9542 20.185C22.7692 20.185 22.5009 19.9683 22.5009 19.3508V13.5725C22.5009 12.8308 22.2851 12.5 21.6676 12.5H17.0842C16.6209 12.5 16.3426 12.8442 16.3426 13.1708C16.3426 13.8733 17.3926 14.0358 17.5009 16.0125V20.3083C17.5009 21.25 17.3309 21.4208 16.9592 21.4208C15.9709 21.4208 13.5659 17.7892 12.1392 13.6342C11.8592 12.825 11.5784 12.5 10.8334 12.5Z" fill="#2F3331"/>
</g>
<defs>
<clipPath id="clip0_154_763">
<rect width="40" height="40" fill="white"/>
</clipPath>
</defs>
</svg>
