<svg width="232" height="238" viewBox="0 0 232 238" fill="none" xmlns="http://www.w3.org/2000/svg">
<path d="M0.484013 227.556L5.01494 237.534L28.392 233.533L60.4918 218.81L99.8236 188.956L133.559 157.966L146.433 145.677L146.628 141.076L144.141 140.169L137.16 139.828L129.283 138.969L120.318 138.538L126.015 129.663L131.6 124.996L157.515 100.674L218.354 32.2167L231.898 8.77404L231.265 5.07602L219.225 -0.000475119L213.022 1.06084L192.287 20.5004L136.846 89.6515L115.443 118.816L112.433 124.185L105.66 132.439L103.157 129.469L94.2447 122.76L87.895 119.248L77.6377 121.004L70.8356 126.45L40.925 156.119L16.8198 183.843L-0.000104401 208.227L0.484013 227.556Z" fill="#F8E46E"/>
</svg>
