<svg width="182" height="84" viewBox="0 0 182 84" fill="none" xmlns="http://www.w3.org/2000/svg">
<path d="M181.136 73.0501L181.062 79.6418L167.215 83.1167L145.959 82.8079L117.046 75.9277L90.9392 67.0633L80.864 63.4254L79.6397 60.9404L80.7898 59.8374L84.552 57.9545L88.6821 55.5692L93.5159 53.155L88.2227 49.6537L84.0133 48.4414L63.8335 41.3474L13.7013 18.4429L0.549498 8.82916L0.000195644 6.64015L5.39957 0.922408L9.07347 0.000491321L25.2146 5.6647L72.5421 30.2619L91.4126 41.1165L94.3738 43.3401L100.109 46.2383L100.766 43.9963L104.046 38.1392L106.691 34.6648L112.767 33.1401L117.836 34.4858L141.515 43.5521L161.524 52.9576L176.709 62.2939L181.136 73.0501Z" fill="#9EE86C"/>
</svg>
