<svg width="259" height="201" viewBox="0 0 259 201" fill="none" xmlns="http://www.w3.org/2000/svg">
<path d="M14.6511 114.628L26.487 109.006L27.1839 108.674L27.9192 108.912L36.2346 111.602L37.1222 111.889L37.4532 112.76L42.836 126.914L50.152 133.483L120.935 146.149L88.17 98.8444L88.1142 98.7639L88.066 98.6774L81.7305 87.1988L81.1381 86.1266L81.8505 85.1294L91.2689 71.953L91.3551 71.8326L91.4599 71.726L116.396 46.1863L116.616 45.9611L116.896 45.8167L151.329 28.058L156.153 16.0595L156.24 15.8433L156.377 15.6526L163.022 6.37834L163.393 5.86187L163.997 5.66414L180.568 0.224247L181.252 -0.00013112L181.917 0.274237L194.604 5.51124L207.227 10.2431L208.145 10.5862L208.414 11.5285L215.47 36.246L215.476 36.2689L215.482 36.2912L227.539 82.7707L230.221 85.3887L250.13 103.828L250.36 104.041L250.511 104.315L255.672 113.663L255.763 113.829L255.821 114.008L258.627 122.742L259.006 123.92L258.098 124.761L188.734 189.066L188.57 189.218L188.374 189.33L169.621 200L168.88 200.421L168.069 200.161L155.496 196.153L154.977 195.989L154.619 195.577L144.026 183.389L46.1382 165.623L33.6298 176.305L33.6068 176.325L21.4825 186.052L20.7279 186.003L10.563 185.335L9.70996 185.278L1.88045 175.519L1.82337 174.944L0.0294256 156.799L3.04207e-05 156.497L0.0630667 156.201L4.872 133.726L4.92277 133.491L5.02831 133.276L13.7397 115.526L14.0386 114.917L14.6511 114.628ZM165.464 28.0374L214.177 73.2708L206.323 39.0543L201.623 15.0794L183.112 9.69808L170.738 12.826L165.464 28.0374Z" fill="#FA8153"/>
</svg>
