<svg width="166" height="112" viewBox="0 0 166 112" fill="none" xmlns="http://www.w3.org/2000/svg">
<path d="M-0.00013349 104.447L1.32568 110.904L15.5816 111.681L36.3906 107.335L63.4668 95.0801L87.4103 81.4114L96.6095 75.9233L97.3388 73.2508L95.9998 72.3867L91.9481 71.2539L87.4398 69.6978L82.2349 68.2472L86.7654 63.803L90.6674 61.812L109.129 51.0088L153.989 18.986L165.072 7.04592L165.195 4.79239L158.806 0.20617L155.024 -3.10775e-05L140.255 8.63125L98.4708 41.7823L82.0098 56.0284L79.5256 58.7748L74.4466 62.711L73.3748 60.635L69.0404 55.5088L65.7828 52.601L59.5276 52.26L54.8071 54.5454L33.2854 67.9505L15.4311 80.9905L2.29934 93.0449L-0.00013349 104.447Z" fill="#9EE86C"/>
</svg>
