<svg width="650" height="733" viewBox="0 0 650 733" fill="none" xmlns="http://www.w3.org/2000/svg">
<path d="M368.48 97.909L454.593 137.892L188.355 513.953L102.195 474.736L368.48 97.909Z" fill="#9EE86C"/>
<path d="M569.057 122.998L644.344 160.187L186.85 513.777L101.662 474.552L569.057 122.998Z" fill="#9EE86C"/>
<path d="M101.755 474.253L189.919 512.635L97.3908 612.283C95.0596 614.794 90.6477 615.666 87.5367 614.231L9.61488 578.289C6.45828 576.833 5.86121 573.568 8.29127 571.051L101.755 474.253Z" fill="#FA8153"/>
<path d="M76.0473 455.963L57.0332 480.758L88.4165 515.002L112.849 503.653L114.829 528.705L172.633 549.447L204.659 511.442L76.0473 455.963Z" fill="black"/>
</svg>
