<svg width="392" height="710" viewBox="0 0 392 710" fill="none" xmlns="http://www.w3.org/2000/svg">
<path d="M368.481 75.3885L454.593 115.372L188.355 491.433L102.195 452.215L368.481 75.3885Z" fill="#9EE86C"/>
<path d="M569.057 100.477L644.345 137.666L186.851 491.256L101.662 452.031L569.057 100.477Z" fill="#9EE86C"/>
<path d="M101.755 451.732L189.919 490.114L97.3912 589.762C95.0599 592.273 90.6481 593.145 87.537 591.71L9.61523 555.767C6.45863 554.311 5.86156 551.047 8.29162 548.53L101.755 451.732Z" fill="#FA8153"/>
<path d="M76.0471 433.442L57.033 458.238L88.4164 492.481L112.849 481.133L114.829 506.185L172.633 526.926L204.659 488.922L76.0471 433.442Z" fill="black"/>
</svg>
