<svg width="354" height="326" viewBox="0 0 354 326" fill="none" xmlns="http://www.w3.org/2000/svg">
<path d="M308.867 227.387L260.089 248.854L235.699 259.588L198.804 259.945L163.532 250.325L136.923 228.952L104.77 197.989L92.0855 169.166L83.347 137.282L89.5542 121.317L118.218 121.936L133.83 157.411L152.308 185.73L182.348 213.533L212.798 223.952L262.526 221.315L303.013 214.084L321.666 215.739L323.884 220.779L308.867 227.387Z" fill="#F8E46E"/>
<path d="M121.336 120.81L118.817 121.919L89.4276 121.019L83.7875 119.41L89.4109 113.327L93.4977 99.3775L93.6019 92.2339L88.0657 77.4672L83.7384 56.1534L81.0278 36.053L78.7405 16.3677L81.0459 9.57865L88.5565 10.2433L86.0815 14.4603L87.1752 30.34L91.3978 52.7826L97.4384 73.3424L105.442 95.0832L110.955 110.342L121.336 120.81Z" fill="#9EE86C"/>
<path d="M131.712 136.284L160.73 151.732L133.39 179.772L118.874 170.012L124.02 186.447L86.1535 208.335L84.3286 182.535L131.712 136.284Z" fill="black"/>
</svg>
