<svg width="125" height="125" viewBox="0 0 125 125" fill="none" xmlns="http://www.w3.org/2000/svg">
<path d="M102.993 54.708L102.652 65.3767L74.4928 99.2567L53.813 102.635L34.5936 87.7102L29.6851 75.3946L44.8908 25.3814L59.5668 23.4149L65.9522 30.3982L65.7857 36.748L70.6587 31.3982L87.2501 42.4828L87.0064 51.2023L95.4243 46.5358L102.993 54.708Z" fill="#9EE86C"/>
<path d="M91.3613 25.8709L81.4536 20.8942L72.0105 41.4379L79.7165 45.3086L91.3613 25.8709Z" fill="#9EE86C"/>
<path d="M78.5256 34.7091L75.3648 37.934C74 39.3266 71.8413 39.5198 70.1889 38.3975L62.0703 32.8833L62.8686 34.0214C64.9485 36.9869 62.7766 40.9891 59.2704 40.6516L55.3737 40.2766L62.8084 43.2041C65.5257 44.274 66.4515 47.7618 64.605 49.9726L63.4783 51.3217L71.1418 49.6589C72.6998 49.3208 74.3354 49.9418 75.3399 51.2528L80.2812 57.7014L80.2124 55.8984C80.0995 52.9437 82.8925 50.8678 85.6325 51.8699L93.1296 54.6117L89.8904 52.2774C86.9758 50.177 87.6775 45.6167 91.0529 44.7224L92.3482 44.3792L82.782 43.1788C80.8348 42.9345 79.2792 41.3309 79.0519 39.3339L78.5256 34.7091Z" fill="#FA8153"/>
<path d="M59.0954 50.7769L90.9082 73.6922L66.0176 82.123L59.0954 50.7769Z" fill="black"/>
<path d="M34.0575 32.7594L65.8703 55.6746L40.9798 64.1054L34.0575 32.7594Z" fill="black"/>
</svg>
