<svg width="309" height="326" viewBox="0 0 309 326" fill="none" xmlns="http://www.w3.org/2000/svg">
<ellipse cx="126.516" cy="94.7456" rx="126.516" ry="94.7456" transform="matrix(0.981808 -0.189878 0.176625 0.984278 5.87964 117.443)" fill="#FA8153"/>
<path d="M116.36 46.4736L143.687 41.1886L156.63 113.314L135.375 117.425L116.36 46.4736Z" fill="#FA8153"/>
<path d="M127.761 72.7042L142.225 85.8384C143.875 87.3364 146.347 87.4766 148.156 86.1747L176.268 65.9364L165.319 82.8643C163.141 86.2313 165.888 90.6086 169.867 90.1112L197.413 86.6678L165.858 100.03C162.829 101.312 162.008 105.222 164.265 107.614L175.273 119.287L147.524 114.343C145.726 114.023 143.906 114.768 142.848 116.255L126.52 139.231L126.191 123.19C126.124 119.901 122.798 117.688 119.739 118.896L87.8659 131.482L109.927 114.632C113.114 112.198 112.006 107.15 108.093 106.275L88.4181 101.875L122.655 96.6066C124.857 96.2677 126.523 94.4348 126.649 92.2101L127.761 72.7042Z" fill="#9EE86C"/>
<path d="M129.344 172.339L-0.0378418 216.767L75.9531 270.573L129.344 172.339Z" fill="black"/>
<path d="M231.535 137.346L102.152 181.773L178.143 235.579L231.535 137.346Z" fill="black"/>
</svg>
