<svg width="138" height="238" viewBox="0 0 138 238" fill="none" xmlns="http://www.w3.org/2000/svg">
<path d="M100.104 2.06934L103.066 7.44531L106.334 13.376H91.7607L91.124 16.0859L92.5371 62.293L96.1475 65.5391L97.4736 66.7314V68.9756L102.879 67.5537L103.768 67.3193L104.669 67.4971L114.434 69.417L115.529 69.6328L116.355 70.3848L124.365 77.6807L125.226 78.4648L125.531 79.5879L127.726 87.6523L127.993 88.6367L127.757 89.6289L125.562 98.8447L125.395 99.5518L124.988 100.154L119.887 107.725L119.227 108.703L118.142 109.167L111.339 112.075L110.586 112.396H106.897L107.846 118.234L108.411 121.722L105.02 122.714L102.082 123.573V125.72L119.126 139.881L119.765 140.412L120.14 141.154L130.837 162.33L130.969 162.591L131.062 162.868L133.969 171.591L134.175 172.207V214.882L134.101 215.262L132.948 221.153L135.67 226.201L137.876 230.293L133.501 231.863L117.922 237.459L117.266 237.694H44.3955L43.9873 237.608L24.5117 233.494L20.6768 232.684L21.4092 228.833L22.7432 221.814L21.4189 215.29L21.3389 214.896V168.872L21.7803 168.013L30.2832 151.445L30.3984 151.22L30.542 151.011L41.5137 134.992L41.9102 134.413L42.4805 134.004L52.0254 127.146L52.1904 127.028L52.3672 126.927L55.7236 124.999L55.6309 123.755L51.6338 122.756L48.0117 121.85L48.665 118.175L49.5176 113.375L50.3809 105.076L50.6846 102.154L53.5615 101.569L56.833 100.903V94.4424L58.6846 93.7402L58.1797 85.6943L54.8477 81.4414L38.7588 75.1514L19.4365 67.6562L17.334 68.498L14.8994 69.4717L13.0361 67.6279L8.44531 63.0889L3.19727 59.6934L0 57.625L1.90918 54.3301L5.31055 48.46L6.46582 46.4658H16.417L16.9639 46.624L23.7656 48.5996L26.6504 49.4365V53.665L42.916 60.4189L60.9092 67.7148L61.3516 67.8945L61.7402 68.1729L69.5303 73.7686L70.5264 74.4844L70.9502 75.6367L71.9189 78.2705V67.291L72.6035 66.2764L74.8809 62.9014V16.5752L73.3779 13.376H58.2285L64.2197 6.7041L69.0479 1.32715L70.2393 0H98.9639L100.104 2.06934ZM102.546 71.8672L95.6885 74.5547L94.8691 74.876L94.2598 75.5117L90.5293 79.4072L89.418 80.5674V107.295H98.8594L99.5459 108.002L100.724 109.215H108.242L108.829 109.029L114.919 107.109L116.315 106.669L117.097 105.432L121.431 98.5742L121.791 98.0049L121.944 97.3486L123.755 89.6133L124.079 88.2285L123.456 86.9492L120.273 80.4219L120.012 79.8838L119.604 79.4463L115.05 74.5635L114.186 73.6367L112.945 73.376L104.826 71.6758L103.657 71.4307L102.546 71.8672ZM69.0244 83.1113L68.2568 86.124L66.7764 91.9395L66.6523 92.4248V100.218H79.3154V83.1113H69.0244Z" fill="#FA8153"/>
</svg>
