<svg width="265" height="266" viewBox="0 0 265 266" fill="none" xmlns="http://www.w3.org/2000/svg">
<path d="M98.8469 203.471L147.03 234.833L189.777 213.791L189.777 154.282L195.84 129.513L202.904 101.387L192.404 107.067L190.837 89.4948L178.593 81.5357L199.84 52.6455L193.737 41.3642L171.351 53.474L174.977 40.7677L151.72 31.8587L135.603 54.1365L125.111 34.7407L103.015 36.972L96.6688 56.0107L78.8459 50.0462L57.0543 61.8345L58.3317 89.2851L29.7092 92.2327L22.238 123.393L47.7483 139.781L29.9465 137.643L41.8619 170.084L70.0176 180.948L101.899 194.913L98.8469 203.471Z" fill="#9EE86C"/>
<path d="M89.4632 167.909L155.504 143.364L142.802 189.606L89.4632 167.909Z" fill="black"/>
<path d="M37.3327 187.339L103.374 162.794L90.6716 209.036L37.3327 187.339Z" fill="black"/>
</svg>
